<?xml version="1.0" standalone="no"?>
<!DOCTYPE svg PUBLIC "-//W3C//DTD SVG 20010904//EN"
 "http://www.w3.org/TR/2001/REC-SVG-20010904/DTD/svg10.dtd">
<svg version="1.0" xmlns="http://www.w3.org/2000/svg"
 width="200.000000pt" height="200.000000pt" viewBox="0 0 200.000000 200.000000"
 preserveAspectRatio="xMidYMid meet">
<metadata>
Created by potrace 1.16, written by Peter Selinger 2001-2019
</metadata>
<g transform="translate(0.000000,200.000000) scale(0.100000,-0.100000)"
fill="currentColor" stroke="none">
<path d="M0 1000 l0 -1000 1000 0 1000 0 0 1000 0 1000 -1000 0 -1000 0 0
-1000z m1280 605 c124 -20 238 -38 253 -41 20 -4 42 -24 73 -66 l44 -60 0
-112 c0 -299 -98 -593 -264 -789 -90 -107 -303 -247 -376 -247 -69 0 -245 111
-354 224 -177 184 -286 492 -286 808 l0 118 42 59 c42 59 44 60 108 70 36 6
157 27 270 45 113 19 219 32 235 30 17 -2 131 -20 255 -39z"/>
<path d="M860 1544 c-14 -2 -68 -11 -120 -20 -194 -31 -225 -41 -254 -83 -22
-32 -26 -48 -26 -112 0 -170 43 -382 104 -514 87 -187 238 -346 390 -409 54
-22 67 -21 144 18 275 141 435 441 459 862 6 112 6 112 -23 152 -32 45 -48 51
-249 88 -86 15 -372 28 -425 18z m410 -304 l0 -50 -242 2 -243 3 -3 33 c-6 64
-16 62 248 62 l240 0 0 -50z m-260 -110 l0 -30 -109 0 c-131 0 -164 -10 -185
-55 -20 -42 -13 -78 21 -105 23 -18 41 -20 149 -20 l124 0 0 -30 0 -30 -130 0
c-140 0 -165 6 -209 54 -18 19 -25 40 -28 78 -5 68 18 115 72 145 36 20 54 23
168 23 l127 0 0 -30z m260 -125 l0 -45 -245 0 -245 0 0 45 0 45 245 0 245 0 0
-45z m0 -235 l0 -50 -240 0 -239 0 -7 35 c-12 67 -20 65 246 65 l240 0 0 -50z"/>
</g>
</svg>
