<?xml version="1.0" standalone="no"?>
<!DOCTYPE svg PUBLIC "-//W3C//DTD SVG 20010904//EN"
 "http://www.w3.org/TR/2001/REC-SVG-20010904/DTD/svg10.dtd">
<svg version="1.0" xmlns="http://www.w3.org/2000/svg"
 width="200.000000pt" height="200.000000pt" viewBox="0 0 200.000000 200.000000"
 preserveAspectRatio="xMidYMid meet">
<metadata>
Created by potrace 1.16, written by Peter Selinger 2001-2019
</metadata>
<g transform="translate(0.000000,200.000000) scale(0.100000,-0.100000)"
fill="currentColor" stroke="none">
<path d="M0 1000 l0 -1000 1000 0 1000 0 0 1000 0 1000 -1000 0 -1000 0 0
-1000z m1153 945 c331 -58 602 -276 728 -586 97 -238 89 -521 -20 -755 -120
-256 -329 -435 -608 -521 -81 -25 -102 -27 -258 -27 -157 0 -177 2 -260 27
-326 100 -563 337 -661 662 -25 82 -28 104 -28 255 0 139 4 177 22 245 77 278
267 504 525 625 75 36 198 72 282 83 71 10 199 6 278 -8z"/>
<path d="M858 1840 c-361 -61 -640 -338 -703 -695 -19 -111 -19 -180 0 -290
47 -270 229 -505 480 -621 49 -23 88 -34 108 -32 l32 3 3 92 3 92 -79 -1
c-116 0 -173 33 -219 130 -14 30 -43 68 -69 89 -53 45 -56 63 -10 63 41 0 91
-33 131 -86 38 -51 82 -83 127 -90 45 -8 118 12 124 34 5 14 29 70 41 93 2 3
-26 11 -63 18 -194 39 -298 159 -311 357 -7 97 8 165 47 228 27 42 29 51 23
109 -3 39 -1 85 7 117 l13 52 49 -5 c29 -4 80 -22 121 -44 71 -38 73 -38 127
-27 70 15 239 15 310 1 55 -12 56 -12 138 31 93 47 145 54 162 22 15 -28 23
-139 12 -174 -7 -25 -3 -38 24 -78 41 -60 58 -141 51 -233 -17 -197 -115 -312
-299 -352 -43 -9 -77 -19 -75 -22 36 -65 41 -91 47 -251 l5 -165 33 -3 c47 -5
199 72 285 143 138 114 243 278 288 450 41 154 28 361 -33 515 -64 164 -219
343 -368 427 -170 95 -380 133 -562 103z"/>
<path d="M480 611 c0 -5 5 -13 10 -16 6 -3 10 -2 10 4 0 5 -4 13 -10 16 -5 3
-10 2 -10 -4z"/>
<path d="M512 561 c4 -13 18 -16 19 -4 0 4 -5 9 -11 12 -7 2 -11 -2 -8 -8z"/>
<path d="M550 510 c0 -5 7 -10 15 -10 8 0 15 5 15 10 0 6 -7 10 -15 10 -8 0
-15 -4 -15 -10z"/>
<path d="M612 479 c2 -7 10 -15 17 -17 8 -3 12 1 9 9 -2 7 -10 15 -17 17 -8 3
-12 -1 -9 -9z"/>
<path d="M753 483 c-18 -6 -16 -23 1 -23 17 0 30 16 19 23 -5 2 -14 2 -20 0z"/>
<path d="M680 465 c0 -9 5 -15 11 -13 6 2 11 8 11 13 0 5 -5 11 -11 13 -6 2
-11 -4 -11 -13z"/>
</g>
</svg>
